<svg xmlns="http://www.w3.org/2000/svg" viewBox="0 0 86.63 96.54"><defs><style>.cls-1{fill:#0478bd;}.cls-2{fill:#049be4;}.cls-3{fill:#e7eaec;}.cls-4{fill:#eceded;}.cls-5{fill:#089de5;}.cls-6{fill:#059be4;}.cls-7{fill:#eaecec;}.cls-8{fill:#fbfdfe;}</style></defs><g id="Layer_2" data-name="Layer 2"><g id="Layer_1-2" data-name="Layer 1"><path class="cls-1" d="M7.64,86.44,0,0H86.63C86.08,6.62,85.55,13.32,85,20c-1.88,21-3.84,42.07-5.6,63.12-.23,2.75-1.23,3.77-3.83,4.46-10,2.65-19.88,5.6-29.82,8.4a6.64,6.64,0,0,1-3.26.46C30.88,93.2,19.36,89.83,7.64,86.44Zm35.73-46H31.47c.3,3.87.54,6.93.82,10.52H43.37l0,14.53c-5-1.67-12-.83-10.75-9.24H23c0,3.89-.23,7.45.12,11a5,5,0,0,0,2.59,3.43c5.82,2.19,11.77,4,17.67,6V88.7c7.1-2,13.36-4.08,19.77-5.44C69.22,82,74,80.17,72.36,72.51a2.13,2.13,0,0,1,.06-.42c1.08-11.49,2.21-23,3.23-34.46.69-7.72,1.2-15.45,1.84-23.17.18-2.17.53-4.34.88-7.12-8,0-15.3,0-22.61,0-3.93,0-9.55-1.2-11.34.83-2.09,2.39-.85,7.71-1.05,11.76H20l.62,10.53H43.37Z"/><path class="cls-2" d="M43.37,20c.2-4-1-9.37,1.05-11.76,1.79-2,7.41-.79,11.34-.83,7.31-.07,14.63,0,22.61,0-.35,2.78-.7,4.95-.88,7.12-.64,7.72-1.15,15.45-1.84,23.17-1,11.49-2.15,23-3.23,34.46a2.13,2.13,0,0,0-.06.42C74,80.17,69.22,82,63.14,83.26c-6.41,1.36-12.67,3.45-19.77,5.44V76.56l0-.36c3.91-1.14,7.85-2.2,11.72-3.45C63.32,70.07,63.31,70,64,61.17c.06-.85.21-1.69.26-2.54l2.3-38.37H43.32Z"/><path class="cls-3" d="M43.37,76.56c-5.9-2-11.85-3.79-17.67-6a5,5,0,0,1-2.59-3.43c-.35-3.5-.12-7.06-.12-11h9.58c-1.25,8.41,5.79,7.57,10.75,9.24a2.26,2.26,0,0,0,.09.57c0,3.4,0,6.79-.07,10.19Z"/><path class="cls-4" d="M43.37,30.48H20.63L20,20H43.37l0,.31v9.91Z"/><path class="cls-5" d="M43.41,66a2.26,2.26,0,0,1-.09-.57q0-7.26,0-14.53l0-.3H54.09c1,11.32.94,11.36-8.78,14.57A19.87,19.87,0,0,0,43.41,66Z"/><path class="cls-6" d="M43.37,40.39V30.48l0-.31H55.79L55,40.69H43.33Z"/><path class="cls-7" d="M43.37,50.91H32.29c-.28-3.59-.52-6.65-.82-10.52h11.9l0,.3v9.92Z"/><path class="cls-8" d="M43.33,50.61V40.69H55l.8-10.52H43.32V20.26h23.2l-2.3,38.37c0,.85-.2,1.69-.26,2.54-.65,8.86-.64,8.9-8.91,11.58C51.18,74,47.24,75.06,43.33,76.2c0-3.4.05-6.79.08-10.19a19.87,19.87,0,0,1,1.9-.83C55,62,55.06,61.93,54.09,50.61Z"/></g></g></svg>