<svg xmlns="http://www.w3.org/2000/svg" viewBox="0 0 118.79 134.61"><defs><style>.cls-1{fill:#e34d26;}.cls-2{fill:#f06529;}.cls-3{fill:#eae9e8;}.cls-4{fill:#eae9e9;}.cls-5{fill:#f0662b;}.cls-6{fill:#fefdfd;}.cls-7{fill:#fefefe;}</style></defs><g id="Layer_2" data-name="Layer 2"><g id="Layer_1-2" data-name="Layer 1"><path class="cls-1" d="M59.92,134.61H58.6a3.64,3.64,0,0,0-.66-.32l-21.49-6C28.23,126,20,123.75,11.8,121.43a1.63,1.63,0,0,1-1-1c-.66-6.75-1.26-13.52-1.86-20.28q-1.25-14-2.48-28-1.51-17-3-33.9Q2.1,23.9.84,9.56C.55,6.39.28,3.22,0,0H118.79c-.45,5.16-.88,10.22-1.34,15.28q-1.52,16.94-3,33.89c-1.1,12.26-2.16,24.52-3.26,36.78-1,11.39-2.06,22.77-3,34.16a1.32,1.32,0,0,1-1.2,1.36q-18.6,5.13-37.18,10.29C66.44,132.67,63.19,133.66,59.92,134.61ZM59.4,93.27a6.58,6.58,0,0,1-.89-.13c-4.82-1.28-9.62-2.61-14.45-3.85a1.57,1.57,0,0,1-1.38-1.67c-.27-3.49-.62-7-.94-10.51h-15c0,.56.06,1,.1,1.5.23,2.62.47,5.23.7,7.85q.59,6.47,1.16,13c.06.63.15,1.09,1,1.31,9.91,2.71,19.81,5.47,29.71,8.21v15.32c.66-.15,1-.21,1.4-.32q8.81-2.42,17.61-4.86c6.37-1.76,12.75-3.52,19.11-5.34a2,2,0,0,0,1.26-1.2c.3-2.25.41-4.52.6-6.78.28-3.36.56-6.71.87-10.06.39-4.27.83-8.53,1.22-12.79.32-3.44.57-6.89.87-10.33.4-4.57.84-9.14,1.24-13.71.3-3.39.56-6.79.86-10.19.49-5.48,1-11,1.51-16.45.33-3.57.66-7.13,1-10.7.3-3.36.57-6.71.88-10.06.12-1.22-.39-1.59-1.58-1.58q-22.62,0-45.22,0c-1.31,0-1.64.48-1.63,1.7.06,4.34,0,8.67,0,13-.52,0-1,.05-1.57.05H22.07c1.35,15.11,2.68,30,4,45H53.36c2,0,4,0,6,.07Z"/><path class="cls-2" d="M59.4,24.58c0-4.34,0-8.67,0-13,0-1.22.32-1.7,1.63-1.7q22.6.06,45.22,0c1.19,0,1.7.36,1.58,1.58-.31,3.35-.58,6.7-.88,10.06-.31,3.57-.64,7.13-1,10.7-.5,5.49-1,11-1.51,16.45-.3,3.4-.56,6.8-.86,10.19-.4,4.57-.84,9.14-1.24,13.71-.3,3.44-.55,6.89-.87,10.33-.39,4.26-.83,8.52-1.22,12.79-.31,3.35-.59,6.7-.87,10.06-.19,2.26-.3,4.53-.6,6.78a2,2,0,0,1-1.26,1.2c-6.36,1.82-12.74,3.58-19.11,5.34q-8.8,2.45-17.61,4.86c-.37.11-.74.17-1.4.32V108.81a2.28,2.28,0,0,0,.52,0q14.53-4,29.08-8c.78-.21.9-.61,1-1.3.45-5.27.93-10.55,1.41-15.83q1.23-13.74,2.47-27.48c0-.42,0-.84,0-1.28-.43,0-.74-.07-1-.07H60.32c-.3,0-.61.06-.91.09l0-.19,0-15,0-.12c.22,0,.44,0,.65,0q17.14,0,34.28,0c.3,0,.59,0,1-.09.44-5,.87-9.85,1.31-14.86h-10l-27.18,0Z"/><path class="cls-3" d="M59.38,54.66l0,.19q0,7.38,0,14.76v.13c-2,0-4-.07-6-.07H26.09c-1.34-15-2.67-29.93-4-45H57.83c.52,0,1.05,0,1.57-.05v.1q0,7.42,0,14.85l0,.12-20.63,0c-.11,0-.22.11-.34.17.41,4.69.85,9.35,1.22,14,.07.88.52.94,1.21.94,3.37,0,6.74,0,10.12,0C53.78,54.74,56.58,54.69,59.38,54.66Z"/><path class="cls-4" d="M59.4,108.93c-9.9-2.74-19.8-5.5-29.71-8.21-.8-.22-.89-.68-1-1.31q-.57-6.48-1.16-13c-.23-2.62-.47-5.23-.7-7.85,0-.47-.07-.94-.1-1.5h15c.32,3.54.67,7,.94,10.51a1.57,1.57,0,0,0,1.38,1.67c4.83,1.24,9.63,2.57,14.45,3.85a6.58,6.58,0,0,0,.89.13l0,.11v15.55Z"/><path class="cls-5" d="M59.4,93.27V69.61H77.5c0,.69,0,1.16,0,1.63C77,76.6,76.45,82,76.06,87.31a1.93,1.93,0,0,1-1.75,2.06c-5,1.28-10,2.66-14.93,4Z"/><path class="cls-6" d="M59.38,93.38c5-1.35,9.94-2.73,14.93-4a1.93,1.93,0,0,0,1.75-2.06c.39-5.36,1-10.71,1.43-16.07,0-.47,0-.94,0-1.63H59.39q0-7.38,0-14.76c.3,0,.61-.09.91-.09H92.79c.3,0,.61,0,1,.07,0,.44,0,.86,0,1.28Q92.6,69.85,91.36,83.59c-.48,5.28-1,10.56-1.41,15.83-.06.69-.18,1.09-1,1.3q-14.55,4-29.08,8a2.28,2.28,0,0,1-.52,0Q59.39,101.09,59.38,93.38Z"/><path class="cls-7" d="M59.38,39.53q0-7.43,0-14.85l27.18,0h10c-.44,5-.87,9.9-1.31,14.86-.4,0-.69.09-1,.09q-17.13,0-34.28,0C59.82,39.58,59.6,39.55,59.38,39.53Z"/><path class="cls-1" d="M59.38,54.66c-2.8,0-5.6.08-8.4.09-3.38,0-6.75,0-10.12,0-.69,0-1.14-.06-1.21-.94-.37-4.67-.81-9.33-1.22-14,.12-.06.23-.17.34-.17l20.63,0Q59.39,47.16,59.38,54.66Z"/></g></g></svg>