<svg xmlns="http://www.w3.org/2000/svg" viewBox="0 0 105.43 118.81"><defs><style>.cls-1{fill:#e4a229;}.cls-2{fill:#f0be27;}.cls-3{fill:#ebebeb;}.cls-4{fill:#fefefd;}.cls-5{fill:#fefdfc;}.cls-6{fill:#e4a228;}</style></defs><g id="Layer_2" data-name="Layer 2"><g id="Layer_1-2" data-name="Layer 1"><path class="cls-1" d="M.05,0H105.43c-.27,3.18-.51,6.28-.78,9.37q-1.16,12.94-2.34,25.9-1.36,15.07-2.72,30.14Q98.47,78.1,97.35,90.79c-.46,5.29-.9,10.58-1.48,15.85-.06.52-1,1.19-1.61,1.37-11.45,3.23-23,6.16-34.36,9.68A24.11,24.11,0,0,1,45,117.56c-11.22-3.41-22.56-6.38-33.86-9.48-1.12-.31-1.61-.7-1.72-2Q7,78.19,4.48,50.25,2.26,25.5,0,.74A6.8,6.8,0,0,1,.05,0ZM52.71,82.61a3.17,3.17,0,0,1-.69,0c-4.38-1.16-8.78-2.29-13.13-3.54a2,2,0,0,1-1-1.47c-.37-3-.6-6.06-.89-9.16H23.62c.62,7,1.24,13.8,1.85,20.68,1.75.49,3.38,1,5,1.42l21.81,6,.41.21V110a3.66,3.66,0,0,0,.69.1c11-3,22.08-6.09,33.11-9.2a2.12,2.12,0,0,0,1.22-1.45c.35-2.85.53-5.72.77-8.59.37-4.62.71-9.24,1.11-13.86.43-5,.92-9.92,1.37-14.89.27-3,.49-6,.76-8.94.45-4.9.93-9.81,1.36-14.71.28-3.22.46-6.44.76-9.65.55-5.9,1.19-11.78,1.7-17.68.22-2.49,0-2.67-2.64-2.67H54.48c-1.2,0-1.88.45-1.78,1.8.08,1.11,0,2.24,0,3.36H28c-1.47,16.2-2.91,32.13-4.37,48.23H50.57c.7,0,1.4-.1,2.1-.15a.57.57,0,0,1,.07.22Z"/><path class="cls-2" d="M52.73,13.59c0-1.12.05-2.25,0-3.36-.1-1.35.58-1.81,1.78-1.8H92.92c2.59,0,2.86.18,2.64,2.67-.51,5.9-1.15,11.78-1.7,17.68-.3,3.21-.48,6.43-.76,9.65-.43,4.9-.91,9.81-1.36,14.71-.27,3-.49,6-.76,8.94C90.53,67.05,90,72,89.61,77c-.4,4.62-.74,9.24-1.11,13.86-.24,2.87-.42,5.74-.77,8.59a2.12,2.12,0,0,1-1.22,1.45c-11,3.11-22.07,6.15-33.11,9.2a3.66,3.66,0,0,1-.69-.1V96.68a6.06,6.06,0,0,1,.65-.28c8.23-2.28,16.46-4.57,24.7-6.81,1.1-.3,1.7-.7,1.74-2,.07-1.94.35-3.87.52-5.81L82.9,52.38c.11-1.26.22-2.52.35-4H52.71q0-10.39,0-20.79l0-.13,16,.84c.36,4.14.68,8.14,1.09,12.12.06.55.59,1.5.92,1.51,4.11.1,8.22.07,12.56.07-.86-9.57-1.69-18.92-2.52-28.28H52.71Z"/><path class="cls-3" d="M52.67,61.67c-.7,0-1.4.15-2.1.15H23.63c1.46-16.1,2.9-32,4.37-48.23H52.73l0,.17q0,6.87,0,13.74l0,.13-12.64.26c-.64,7-1.25,13.72-1.88,20.65H52.37c0,3.81,0,7.63,0,11.45A9.85,9.85,0,0,0,52.67,61.67Z"/><path class="cls-4" d="M52.67,61.67A9.85,9.85,0,0,1,52.38,60c0-3.82,0-7.64,0-11.45l.34-.12H83.25c-.13,1.44-.24,2.7-.35,4L80.32,81.82c-.17,1.94-.45,3.87-.52,5.81,0,1.26-.64,1.66-1.74,2-8.24,2.24-16.47,4.53-24.7,6.81a6.06,6.06,0,0,0-.65.28l-.41-.21c0-4,0-8,.09-12a6.15,6.15,0,0,1,.68-1.79c4.25-1.16,8.5-2.33,12.76-3.45.94-.25,1.44-.59,1.51-1.73.25-3.93.67-7.85,1-11.78.11-1.25.22-2.51.33-3.84H52.74A.57.57,0,0,0,52.67,61.67Z"/><path class="cls-3" d="M53.07,82.69a6.15,6.15,0,0,0-.68,1.79c-.08,4-.07,8-.09,12l-21.81-6c-1.64-.45-3.27-.93-5-1.42-.61-6.88-1.23-13.72-1.85-20.68H37c.29,3.1.52,6.14.89,9.16a2,2,0,0,0,1,1.47c4.35,1.25,8.75,2.38,13.13,3.54a2.65,2.65,0,0,0,.69,0Z"/><path class="cls-2" d="M53.07,82.69l-.36-.09,0-20.71H68.69c-.11,1.33-.22,2.59-.33,3.84-.35,3.93-.77,7.85-1,11.78-.07,1.14-.57,1.48-1.51,1.73C61.57,80.36,57.32,81.53,53.07,82.69Z"/><path class="cls-5" d="M52.7,27.5q0-6.87,0-13.74H80.76c.83,9.36,1.66,18.71,2.52,28.28-4.34,0-8.45,0-12.56-.07-.33,0-.86-1-.92-1.51-.41-4-.73-8-1.09-12.12Z"/><path class="cls-6" d="M52.71,48.42l-.34.12H38.21c.63-6.93,1.24-13.64,1.88-20.65l12.64-.26Q52.72,38,52.71,48.42Z"/></g></g></svg>