<svg xmlns="http://www.w3.org/2000/svg" viewBox="0 0 377.66 375.41"><defs><style>.cls-1{fill:#fdfdfd;}.cls-2{fill:#089008;}.cls-3{fill:#ed0923;}.cls-4{fill:#eeeae8;}.cls-5{fill:#b47f47;}.cls-6{fill:#ed9e4f;}.cls-7{fill:#f1f1ee;}.cls-8{fill:#1c8184;}.cls-9{fill:#d6dac8;}.cls-10{fill:#41bed9;}.cls-11{fill:#dcb23c;}.cls-12{fill:#673e24;}.cls-13{fill:#969a62;}.cls-14{fill:#b7b58c;}.cls-15{fill:#8f5c35;}.cls-16{fill:#838747;}.cls-17{fill:#d1cfac;}.cls-18{fill:#f7f7f7;}.cls-19{fill:#c1915f;}.cls-20{fill:#559597;}.cls-21{fill:#96d1de;}.cls-22{fill:#e7a4a1;}.cls-23{fill:#7f522e;}.cls-24{fill:#71a6a6;}.cls-25{fill:#88431f;}.cls-26{fill:#a56c2f;}.cls-27{fill:#40281b;}.cls-28{fill:#4e2d1a;}.cls-29{fill:#61361d;}</style></defs><g id="Layer_2" data-name="Layer 2"><g id="Layer_1-2" data-name="Layer 1"><path class="cls-1" d="M263.12,360.21c-21,8.58-42.64,13.88-65.53,15-26.48,1.28-51.71-3.16-76.43-12.15-4.07-1.48-5-3.66-5-7.68q.16-120.42.08-240.82c0-31.48.13-63-.13-94.43,0-4.54,1.56-6.47,5.48-7.84A214,214,0,0,1,172.33.78a183.31,183.31,0,0,1,63.54,5.29c9.27,2.41,18.17,6.27,27.23,9.48.07,1.5.2,3,.2,4.48q0,167.85,0,335.7C263.3,357.22,263.19,358.72,263.12,360.21ZM141.14,228l-.07.13c1.14,4.81,3,8.58,9.11,6.59h3l-1.77,4.81,7.44-.72-1.6,2.9,2.88.14,1.13-.16,1.16,2.23.76,1,2-1.31,2.55,1.31v1.72c2.93-1.47,7.2,1.37,9.26-2.88.68.42,1.65.67,2,1.28,3.24,6.15,4.71,6.85,11.11,5l5.61,1,4-.38,0-1-2.89-.64,4.3-5.9,1.88,1.06c2.39,1,4.91,3.16,7.15,2.89,4.79-.57,9.17-2.65,9.31-8.74-5.63-3.84-6.24-3.95-10.31-1.85l-1.62,1.39-5.88,3.59L193,237.57c6.44,1.13,10.62-3.39,15.51-6.16l2.68-.44,3.12,1c.17-1.06.84-2.53.39-3.1-.83-1-2.33-1.51-3.55-2.22l1.75-1.62c4.91,1.11,6.83-.6,6.44-5.7l2.88-.22,3.06-2,.06-.13c2.08-.12,4-.23,3.37-3.32-.18-.84.63-2,1.25-2.86,2-2.68,4.11-5.28,6.18-7.91l.07-2a5.06,5.06,0,0,0,0-.87c5.18-1.56,4.23-5.29,3.2-9.05.39-3.91,1-7.82,1.11-11.73.09-5.44-.25-10.87-.41-16.31l-3.33-6-1.25-2.69-.14-.4-9.15-13c-3.68-4.18-7.23-8.52-12.94-10.09l-11.79-4.1L197.2,126l-6,0a1.16,1.16,0,0,0-.93.11.35.35,0,0,0-.14.58l-1.95.38c-1.72.53-3.73.68-5.05,1.72-.86.67-.66,2.64-1,4-.25,1-.61,2-.92,3l-1.79-.27c-1.29-.46-2.92-1.67-3.82-1.27-5.37,2.39-10.07,5.67-12.11,11.62l-4.32,3c-4.32-1.4-4.78-4.79-2-10.39l-6.67,5.28c1.55,5,1.46,10.8,8.66,9.3,2.5,2.81,2.5,2.81,4,1l2.15.78c-1.85,2.3-3.33,5.1-5.62,6.8-6.94,5.17-7.72,13.92-1.24,17.85,1.42,2.75,3.6,2.39,5.92,1.42l4.92,1-9.07,6.2c-1.16-1.16-2.34-2.31-3.48-3.49-1.52-1.58-3-3.19-4.52-4.79a7.83,7.83,0,0,1-1-7.7c.65-2-1.24-5.55-3.05-7.33-2.06-2-5.06-4.8-9-.87,1.58,1.37,2.93,3.57,4.43,3.67,5.39.36,4.42,2.78,2.85,6.21-1.73,3.78-.69,6.77,3.54,8.17a52.87,52.87,0,0,1,3.13,7c1,3.34,2.73,5.12,6.31,4.89,1.81-.12,3.63-.08,5.44-.11l2.55.3-4.28,7.21-3.89-.13-2.66-1.23-9.43-7.8c-1.29-2.18-2.57-4.36-4-6.74l-5.44,2.82,5.54,6.93c-.46,7,2.18,9.84,9.89,10.82l2.35,1.26c2.65,5,6.26,5.9,16,4,4.75,6.79,11.09,7.08,18.15,4.25l-.49,4.63-12.2.73-1.54,1.61c-1.59-2-3.13-4.07-4.77-6a14,14,0,0,0-2-1.66A8.83,8.83,0,0,0,167.6,217a13.78,13.78,0,0,0,.31,3.26l-11.3-4.52c-1.66-2.13-3.48-3.64-6.43-1.88.74,3.81,3.25,4.28,6.22,4l4.59,3.45-2.12,3,12.31,3c-1.23,2-1.88,3.08-2.8,4.57l7.12.75,4.34,2.65,6.33,1.93.17,1.81c-.1.21-.19.43-.28.64l-13.83-1.78v0l-1.83-1.82-2.19,2.41c-2.19-2.86-4-.57-5.95.41l-4.84-7.06-3.66.87c-1.11-2.77-2.23-5.53-3.35-8.3l-2.82-1.69-2.35-1.66c-5.19.2-3.36-3.45-3.12-6.13l-4.6-2-.26-2.25c-.31-2.72,1-6.26-3.4-7-3.32-.54-4.13-2.71-3.65-5.69l2.86-3.2-2.75-1.8-2.52-.14,1.49-2.94c3.44-3.27,3.35-5.37-.31-7l.14-2v-1.85l-4.87,3-2.74,4.72-1.38,1.3c-.34.84-1.16,2.22-.93,2.42a38.53,38.53,0,0,0,4.41,3.13l-1.38,4.47.87.78,3.07,1.21-2.37,7.36c.34.78.58,2.87,1.72,3.64,2.67,1.81,2.38,7.61,7.68,5.81,1.62,4.52,5.47,6.12,9.64,7.27l.19,1.57v0l-1.86,1.08-.69.76ZM251,202.22l7.37-3.54-.53-1.06-4.74-.76c2.22-2.2,4.69-4.22,6.55-6.7a4.85,4.85,0,0,0,.16-4.5c-1.26-1.83-3.38-3.07-5.34-4.73-.91,1.42-1.52,3.61-2.8,4.13-3.73,1.51-3.31,3.85-2,6.6.81,1.8,1.79,3.52,2.69,5.28l-5.11-.71c.85,1.8,1.48,3.15,2.08,4.41l-3.2,3c-6.57,3-5,8.17-3.53,13.32l.65.67c5.57,0,8.16-3.53,9.52-8.28.18-.62-1-1.63-1.5-2.46Zm-25.77,32.45c12.33,1,15.37-1.68,13.49-11.87-4,.21-8.49-.69-10.81,3.86-1.18,2.29-1.95,4.79-2.91,7.2a5.64,5.64,0,0,1-1.63-.93c-.94-1.08-1.74-2.29-2.59-3.44a36.18,36.18,0,0,0,.4,4c.29,1.44.41,3.22,1.32,4.17,1.32,1.37,3.28,2.14,5,3.17l.43-1.26Z"/><path class="cls-2" d="M115.31,14.36V360.93C63.26,342.18,5.8,282.18.44,201.27-5.65,109.41,52.71,38.6,115.31,14.36Z"/><path class="cls-3" d="M263.12,360.21c.07-1.49.18-3,.18-4.48q0-167.85,0-335.7c0-1.49-.13-3-.2-4.48,1.27.17,2.67,0,3.78.56,55.95,26.28,91.17,69.67,105.65,129.58,9.5,39.35,5.53,78-9.69,115.33a184.75,184.75,0,0,1-29.17,48c-17.55,21.17-39.17,37-63.53,49.36C268,359.41,265.47,359.61,263.12,360.21Z"/><path class="cls-4" d="M236.13,202.9c-2.07,2.63-4.19,5.23-6.18,7.91-.62.83-1.43,2-1.25,2.86.64,3.09-1.29,3.2-3.37,3.32q.4-3,.82-6c-1.25-3.62-2.56-4.2-5.17-2.3l0,0-8.25,5.44c-.11-2.08-.19-3.63-.27-5.18a32.88,32.88,0,0,0-2.87-3.24c-1.67-1.46-3.5-2.74-5.27-4.1l2.15-2.87,8.71,3.6,3,.61,2.16-.3,3.07-.57,5-1.25c-1.92-5.81-5.19-8.82-17.13-16.19a10.93,10.93,0,0,1-5.19-8.7l-1.78-3.17,2.44-2.67c3.38,3.8,9.91-.75,12.73,4.74a10.25,10.25,0,0,0,2.29-.59l2.43,2.64.83,1.1c.27,2.74-.73,6,3.08,7.25l1.45,1.58,1.61-1.9,1.94.13-1,11.06,1-.23,4.13-6a.35.35,0,0,1,.19.52c-.42,3.2-.84,6.41-1.27,9.61a5.06,5.06,0,0,1,0,.87l-1.57,1.21Z"/><path class="cls-5" d="M179.43,135.56l1.79.27,6,3.65a22.89,22.89,0,0,0,.58,4.17c.62,1.88,1.57,3.66,2.38,5.48-2.55-.7-3.17.62-3,2.82,0,2.34,0,4.68,0,7,0,1,0,1.95.07,2.93L188,169a1.87,1.87,0,0,0,0,.88l-.3,2-5.48.26c-1-3.17-1.34-6.8-6-7.82v8.24c-.12.83-.23,1.67-.35,2.5-4.13-3.11-4.3-7.32-3.05-11.77,1.35-4.8,2.93-9.53,4.4-14.29l2-2.94,1.43-2.8c-3.65-1.68-1.61-4.63-1.57-7.13A3.45,3.45,0,0,0,179.43,135.56Z"/><path class="cls-6" d="M177,220.79l12.21-.73,1.54,3c3.47,2.48,5.71.41,7.83-2.12,2.69-.1,4.82.54,5,3.78l-2.88,8.16c-1.61.71-3.19,1.93-4.83,2-4.47.25-9,0-13.46,0L178.13,232C177.8,228.64,177.41,224.71,177,220.79Z"/><path class="cls-7" d="M167.43,194.06l-2.55-.3c.1-.68.19-1.36.28-2l10.7.33c4.59,4.53,10.28,4.85,15,.84q1.55,1.59,3.08,3.19l4,5.32c-.28.92-.32,2.42-.87,2.65a26.19,26.19,0,0,1-5.05,1.07L188,207c-.81-.71-1.61-2-2.3-1.89-3.25.29-6.19-5.22-9.61-.54-2.14,1.12-4,4.2-6.77,1.07.14-2,.64-4,.33-5.85S168.19,196,167.43,194.06Z"/><path class="cls-8" d="M169.28,205.66c2.81,3.13,4.63.05,6.77-1.07l14.42,5.07,2.43,3-3.18,2.74c-7.06,2.83-13.4,2.54-18.15-4.25-9.77,1.92-13.38,1-16-4l8-3.57Z"/><path class="cls-9" d="M190,250c-6.4,1.87-7.87,1.17-11.11-5-.32-.61-1.29-.86-2-1.28a18.35,18.35,0,0,0-1.61-2.8,40.76,40.76,0,0,0-3.13-3l13.83,1.78q-.51,3.67-1,7.33l1.12.53a40.12,40.12,0,0,0,2.86-6.14c.14-.48-1.72-1.56-2.67-2.36-.05-.6-.11-1.2-.17-1.81l6.81.3,8.63,3.79c-.18.55-.35,1.11-.53,1.66l-4.3,5.9,2.89.64,0,1-4,.38C193.7,251.11,192.62,246.18,190,250Zm8.22-7.28.31-.24-.26-.28-.39.38Z"/><path class="cls-8" d="M198.6,220.93c-2.12,2.53-4.36,4.6-7.83,2.12l7.29-11.89.06-.3,9.29-.21,1,.27c4.85,6.87,6.74,6.86,11.44-.11a21.91,21.91,0,0,0,1.11-2.09l0,0,5.17,2.3q-.42,3-.82,6l-.06.13-3.06,2-2.88.22-2.3.22-3.82-.3-1,0C206.24,216.24,202.49,216.72,198.6,220.93Z"/><path class="cls-10" d="M156.61,215.73l11.3,4.52a13.78,13.78,0,0,1-.31-3.26,8.83,8.83,0,0,1,1.12-2.29,14,14,0,0,1,2,1.66c1.64,2,3.18,4,4.77,6q0,5.13,0,10.28l-7.13-.75c.92-1.49,1.57-2.56,2.8-4.57l-12.31-3,2.12-3-4.6-3.45C156.47,217.16,156.54,216.44,156.61,215.73Z"/><path class="cls-11" d="M175.86,192l-10.7-.32c-2.58.1-6,1.3-4.94-3.58l9.07-6.21-4.92-1c-.44-1.27-.87-2.55-1.3-3.83,5.19-1,9.46-.53,10.6,5.91.15.83,1.66,1.41,2.54,2.11l1.89,5.58Z"/><path class="cls-12" d="M237.46,190.45a.35.35,0,0,0-.19-.52c-.12-4.32-.28-8.63-.35-13,0-2.54-.94-4.15-3.74-4.1l-1-2.95c.67-.46,2-1.18,1.92-1.33-.8-1.89-1.79-3.7-2.73-5.53l-1.22-.14,1.06-1,3,0,5.85,1c.16,5.44.5,10.87.41,16.31-.07,3.91-.72,7.82-1.11,11.73Z"/><path class="cls-13" d="M225,233.86c1-2.41,1.73-4.91,2.91-7.2,2.32-4.55,6.82-3.65,10.81-3.86,1.88,10.19-1.16,12.89-13.49,11.88A.77.77,0,0,0,225,233.86Z"/><path class="cls-14" d="M158.45,179.54c-6.48-3.93-5.7-12.68,1.24-17.85,2.29-1.7,3.77-4.5,5.62-6.8l4.88,3.05c-1.08,1.35-2.09,2.75-3.25,4-3.19,3.52-8.34,5.77-7.61,11.81Z"/><path class="cls-15" d="M201.49,126.71l11.79,4.1,3,7.28L213,144.94l-3.84-4.16,4.06-1.69.36-1.72-10.39-3.65c0-3.91-3-2.44-5-2.74l1.14-4Z"/><path class="cls-13" d="M252.31,196.94c-.9-1.76-1.88-3.48-2.69-5.28-1.26-2.75-1.68-5.09,2-6.6,1.28-.52,1.89-2.71,2.8-4.13,2,1.66,4.08,2.9,5.34,4.73a4.85,4.85,0,0,1-.16,4.5c-1.86,2.48-4.33,4.5-6.55,6.7A6.82,6.82,0,0,0,252.31,196.94Z"/><path class="cls-16" d="M251.22,206.88c.53.83,1.68,1.84,1.5,2.46-1.36,4.75-3.95,8.29-9.52,8.28a1,1,0,0,0-.65-.67c-1.49-5.15-3-10.31,3.53-13.32l3.08.11-.67,6.39.65.26Z"/><path class="cls-17" d="M150,182c-4.23-1.4-5.27-4.39-3.54-8.17,1.57-3.43,2.54-5.85-2.85-6.21-1.5-.1-2.85-2.3-4.43-3.67,3.9-3.93,6.9-1.15,9,.87,1.81,1.78,3.7,5.37,3.05,7.33a7.83,7.83,0,0,0,1,7.7Z"/><path class="cls-13" d="M172.23,237.93a40.76,40.76,0,0,1,3.13,3,18.35,18.35,0,0,1,1.61,2.8c-2.07,4.25-6.34,1.41-9.27,2.88v-1.72l-.12-2.58-2.43,1.27-2,1.31-.76-1-1.16-2.23c-.23-.37-.45-.74-.68-1.1l-.45,1.26-2.88-.14c.69-1.25,1.15-2.07,1.6-2.9l3.38.1c1.93-1,3.76-3.27,5.95-.41l4-.59Z"/><path class="cls-13" d="M209.11,236.37c4.07-2.1,4.68-2,10.31,1.85-.14,6.09-4.52,8.17-9.31,8.74-2.24.27-4.76-1.85-7.15-2.89,4.61-.31,8.82-1.42,12.58-6.14l-6.33,1C209.18,238.08,209.14,237.22,209.11,236.37Z"/><path class="cls-18" d="M130.2,198c-.48,3,.33,5.15,3.65,5.69,4.44.71,3.09,4.25,3.4,7-.95-1.38-1.9-2.76-3.27-4.73-1.95.7-5.55-4.36-7.67.82l6.92,9.13,0,1.05c-5.3,1.8-5-4-7.68-5.81-1.14-.77-1.38-2.86-1.72-3.64.92-2.84,1.64-5.1,2.37-7.36Z"/><path class="cls-13" d="M129.28,190c-.49,1-1,2-1.49,2.94l-.72,3-3.46-2.16a38.53,38.53,0,0,1-4.41-3.13c-.23-.2.59-1.58.93-2.42l1.73.33-.35-1.63,2.74-4.72,4.86-1.11c-.05.66-.09,1.31-.14,2C129.08,185.3,129.18,187.63,129.28,190Z"/><path class="cls-8" d="M153.19,205.94c-7.71-1-10.35-3.86-9.89-10.82l1.06-.27a.57.57,0,0,0,.66-.46l1.14-.59C152.28,195.27,154.06,198.34,153.19,205.94Z"/><path class="cls-19" d="M163.51,145.91c2-5.95,6.73-9.23,12.1-11.62.9-.4,2.53.81,3.82,1.27a3.45,3.45,0,0,1-.28.54c-1.05,1.8-2.09,3.61-3.14,5.42-3.26.54-7.19.11-7.37,5.1l-2,.29Z"/><path class="cls-14" d="M150,182l2.22-2.15c1.5,1.6,3,3.21,4.52,4.79,1.14,1.18,2.32,2.33,3.48,3.49-1,4.89,2.36,3.69,4.94,3.59-.09.68-.18,1.36-.28,2-1.81,0-3.63,0-5.44.11-3.58.23-5.35-1.55-6.31-4.89A52.87,52.87,0,0,0,150,182Z"/><path class="cls-11" d="M166.63,146.91l2-.29,1.21.15,3.69-.07,1.72,1.25c-3.81,2.25-5.08,5.79-5.07,10l-4.88-3.05-2.15-.78C161.49,150.34,164.92,149,166.63,146.91Z"/><path class="cls-9" d="M187.25,139.48l-6-3.65c.31-1,.67-2,.92-3,.34-1.37.14-3.34,1-4,1.32-1,3.33-1.19,5.05-1.72l-3.78,4.86c1,.95,1.94,2.21,3.16,2.78,3.56,1.67,6,3.9,5.53,8.21Z"/><path class="cls-17" d="M133.2,217l0-1.05,4.28-3,4.6,2c-.24,2.68-2.07,6.33,3.12,6.13l-2,2.88-.36.28C138.67,223.08,134.82,221.48,133.2,217Z"/><path class="cls-10" d="M200.68,232.87l2.88-8.16,9.63-.47a5.45,5.45,0,0,0-.3.76c-.58.54-1.16,1.08-1.72,1.62,0,1.45,0,2.9,0,4.35l-2.68.44Zm8.36-5.4-.33-.16,0,.28Z"/><path class="cls-20" d="M153.19,205.94c.87-7.6-.91-10.67-7-12.14l1-1.69,9.43,7.8c-.15,2.65.85,2.8,2.66,1.23l3.89.13.42,2.35-8,3.57C154.75,206.78,154,206.36,153.19,205.94Z"/><path class="cls-14" d="M159.17,153.11c-7.2,1.5-7.11-4.3-8.66-9.3l6.67-5.28c-2.78,5.6-2.32,9,2,10.39C159.18,150.31,159.18,151.71,159.17,153.11Z"/><path class="cls-16" d="M137.51,212.94l-4.28,3-6.92-9.13c2.12-5.18,5.72-.12,7.67-.82,1.37,2,2.32,3.35,3.27,4.73C137.34,211.44,137.42,212.19,137.51,212.94Z"/><path class="cls-21" d="M200.68,232.87l7.82-1.46c-4.89,2.77-9.07,7.29-15.51,6.16l-6.82-.31-6.33-1.93,2.55-.44c4.49,0,9,.26,13.46,0C197.49,234.8,199.07,233.58,200.68,232.87Z"/><path class="cls-22" d="M163.57,203.62l-.42-2.35,4.28-7.21c.76,1.91,1.86,3.77,2.18,5.75s-.19,3.89-.33,5.85Z"/><path class="cls-5" d="M216.24,138.09l-3-7.28c5.71,1.57,9.26,5.91,12.94,10.09L224.16,143Z"/><path class="cls-15" d="M224.16,143l2.06-2.14,9.15,13-2.37.18-4.61-4.68s0-.2,0-.2Z"/><path class="cls-23" d="M184.41,131.93l3.78-4.86,1.95-.38c.66,1.34,1.31,2.69,2,4l4.12.14-.09.27,2,6h-1.85Z"/><path class="cls-24" d="M198.06,211.16l-7.29,11.89c-.52-1-1-2-1.54-3,.16-1.54.33-3.09.49-4.63l3.17-2.74,3.74-1.69Z"/><path class="cls-22" d="M147.17,192.11l-1,1.69-1.14.59-.66.46-1.06.27-5.54-6.93,5.44-2.82C144.6,187.75,145.88,189.93,147.17,192.11Z"/><path class="cls-14" d="M162.25,238.91l-3.38-.1-7.44.72,1.77-4.81c.19-.67.37-1.34.56-2l3.65-.87Z"/><path class="cls-14" d="M150.18,234.72c-6.07,2-8-1.78-9.11-6.59.65-.77,1.31-1.54,2-2.3v0l2.85.44Q148,230.48,150.18,234.72Z"/><path class="cls-16" d="M150.18,234.72q-2.16-4.23-4.3-8.47c1.51-.6,3-1.21,4.52-1.83l3.36,8.3c-.19.66-.37,1.33-.56,2Z"/><path class="cls-16" d="M209.21,238.94l6.33-1c-3.76,4.72-8,5.83-12.58,6.14L201.08,243c.18-.55.35-1.11.53-1.66l5.88-3.59c.26.43.53.85.79,1.26l.89-.05Z"/><path class="cls-9" d="M249.16,203.74l-3.08-.11,3.2-3c-.6-1.26-1.23-2.61-2.08-4.41l5.11.71a6.82,6.82,0,0,1,.79-.08l4.74.76.53,1.06L251,202.22Z"/><path class="cls-9" d="M123.61,193.69l3.46,2.16c3.36,1.69,2.9-1,3.24-2.82l2.75,1.8L130.2,198l-4,2.12-3.07-1.21-.87-.78Z"/><path class="cls-9" d="M225,233.86a.77.77,0,0,1,.23.82l2.66,4.92-.43,1.26c-1.68-1-3.64-1.8-5-3.17-.91-.95-1-2.73-1.32-4.17a36.18,36.18,0,0,1-.4-4c.85,1.15,1.65,2.36,2.59,3.44A5.64,5.64,0,0,0,225,233.86Z"/><path class="cls-17" d="M159.17,153.11c0-1.4,0-2.8,0-4.19l4.33-3,3.12,1c-1.71,2.13-5.14,3.43-3.47,7.2C161.67,155.92,161.67,155.92,159.17,153.11Z"/><path class="cls-19" d="M182.39,234.89l-2.55.44-4.34-2.65c0-3.43,0-6.86,0-10.28l1.53-1.61c.39,3.92.78,7.85,1.11,11.25Z"/><path class="cls-19" d="M192.11,130.73c-.66-1.35-1.31-2.7-2-4a.35.35,0,0,1,.14-.58l.93-.11,6,0,2.19,1-1.14,4-2.11.16.09-.27C195,128.17,193.57,128.18,192.11,130.73Z"/><path class="cls-25" d="M233,154.1l2.38-.18.14.4,1.25,2.69,3.33,6-5.85-1C233.82,159.33,233.41,156.71,233,154.1Z"/><path class="cls-26" d="M158.45,179.54c.29-1.92.59-3.84.88-5.75l3.74,3.34c.43,1.28.86,2.56,1.3,3.83C162.05,181.93,159.87,182.29,158.45,179.54Z"/><path class="cls-21" d="M212.89,225a5.45,5.45,0,0,1,.3-.76,26,26,0,0,0,2.1-2.1,29,29,0,0,0,1.74-2.62l2.3-.22C219.72,224.4,217.8,226.11,212.89,225Z"/><path class="cls-9" d="M237.46,190.45l1.93.56c1,3.76,2,7.49-3.2,9.05C236.62,196.86,237,193.65,237.46,190.45Z"/><path class="cls-17" d="M156.61,215.73c-.07.71-.14,1.43-.22,2.14-3,.26-5.47-.21-6.21-4C153.13,212.09,155,213.6,156.61,215.73Z"/><path class="cls-21" d="M186.34,239.07c.95.8,2.81,1.88,2.67,2.36a40.12,40.12,0,0,1-2.86,6.14L185,247q.53-3.66,1-7.33C186.15,239.5,186.24,239.28,186.34,239.07Z"/><path class="cls-21" d="M211.18,231c0-1.45,0-2.9,0-4.35,1.19.71,2.69,1.2,3.52,2.22.45.57-.22,2-.39,3.1Z"/><path class="cls-18" d="M129.28,190c-.1-2.32-.2-4.65-.31-7C132.63,184.58,132.72,186.68,129.28,190Z"/><path class="cls-17" d="M150.4,224.42c-1.51.62-3,1.23-4.52,1.83l-2.85-.44c-.06-.53-.13-1.05-.19-1.58l.36-.28,4.38-1.22Z"/><path class="cls-13" d="M249.16,203.74l1.84-1.52c.07,1.56.15,3.11.22,4.66l-2.08,3.51-.65-.26Q248.83,206.94,249.16,203.74Z"/><path class="cls-24" d="M190,250c2.58-3.84,3.66,1.09,5.61,1Z"/><path class="cls-18" d="M129.11,181l-4.86,1.11,4.87-3Z"/><path class="cls-18" d="M130.31,193c-.34,1.8.12,4.51-3.24,2.82l.72-3Z"/><path class="cls-9" d="M172.22,237.91l-4,.59,2.19-2.41Z"/><path class="cls-5" d="M199.39,127l-2.19-1,4.29.73Z"/><path class="cls-14" d="M147.58,222.73,143.2,224l2-2.88Z"/><path class="cls-4" d="M222.21,219.08l3.06-2Z"/><path class="cls-7" d="M159.26,201.14c-1.81,1.57-2.81,1.42-2.66-1.23Z"/><path class="cls-14" d="M165.15,243.61l2.43-1.27.12,2.58Z"/><path class="cls-17" d="M143,225.83c-.66.76-1.32,1.53-2,2.3l.07-.13,0-1.09Z"/><path class="cls-9" d="M236.13,202.9l-1.5-.76,1.57-1.21C236.18,201.59,236.15,202.24,236.13,202.9Z"/><path class="cls-18" d="M121.51,186.84l.35,1.63-1.73-.33Z"/><path class="cls-15" d="M236.76,157l-1.25-2.69Z"/><path class="cls-16" d="M209.11,236.37c0,.85.07,1.71.1,2.57l0,0-.89.05c-.26-.41-.53-.83-.79-1.26Z"/><path class="cls-14" d="M160.15,241.85l.45-1.26c.23.36.45.73.68,1.1Z"/><path class="cls-14" d="M141.18,226.91l0,1.09-.65-.33Z"/><path class="cls-13" d="M242.55,217a1,1,0,0,1,.65.67Z"/><path class="cls-9" d="M191.21,126l-.93.11A1.16,1.16,0,0,1,191.21,126Z"/><path class="cls-14" d="M162.44,243.92l.76,1C163,244.58,162.69,244.25,162.44,243.92Z"/><path class="cls-18" d="M122.23,198.16l.87.78Z"/><path class="cls-15" d="M221.81,174.28a10.25,10.25,0,0,1-2.29.59c-2.82-5.49-9.35-.94-12.73-4.74l-2.44,2.67L199.73,177l-6.4,1.09c.09-2.18-1.38-5.25,2.87-5.08l2-.05,5.94-11,6.61-.91c.14-1.2.29-2.66.45-4.13a10.84,10.84,0,0,0,2.73,1.86c.65.19,1.56-.49,2.36-.77l.9-.08,1,3,1,3c-1.71-.83-3.61-1.37-2.57,1.57.59,1.69,2.31,3,3.53,4.46h0c.34.67.67,1.34,1,2h0l1.11,1.87Z"/><path class="cls-12" d="M211.32,184.67c11.94,7.37,15.21,10.38,17.13,16.19l-5,1.25-1.21-.18L212.94,196l-2.7-2-1-2,4.43-.58Z"/><path class="cls-9" d="M233.18,172.88c2.8,0,3.7,1.56,3.74,4.1.07,4.32.23,8.63.35,13l-4.13,6-1,.23,1-11.06v-8.33h-1.94V185l-1.61,1.9-1.45-1.58.66-8.25.3-3.13Z"/><path class="cls-27" d="M198,201.39l-4-5.33c1.92-.49,4.58-.36,5.64-1.59,3.69-4.31,6.56-2.12,9.62.49l5.95,7.41-8.71-3.6c-.28.38-1.21,1.63-2.15,2.87Z"/><path class="cls-11" d="M198,201.39l6.32.25c1.77,1.36,3.6,2.64,5.27,4.1a32.88,32.88,0,0,1,2.87,3.24l-4,1.94-1-.27c-.86-1.21-1.56-3.26-2.62-3.48-2.95-.58-5.92-.17-6.67,3.69l-.06.3-1.44-.16-4.1-4.18-.46-1.71a26.19,26.19,0,0,0,5.05-1.07C197.66,203.81,197.7,202.31,198,201.39Z"/><path class="cls-12" d="M229.11,173.88l-.3,3.14-3.74,1c-.27-.37-.55-.73-.83-1.1l2.21-3.34-3.29.3-2-1.88h0c-.34-.66-.67-1.33-1-2h0l-1-6-1-3c0-.3.07-.61.11-.91a7.73,7.73,0,0,1,7.82,5.34c1,2.53,2,5,3.06,7.53-.12.11-.34.24-.32.32a3.21,3.21,0,0,0,.3.69Z"/><path class="cls-28" d="M211.32,184.67l2.33,6.75-4.43.58c-1.37-3.13-2.74-6.26-4-9.09l-5,2.06c1.73-3.16,1.49-7.62,5.92-9A10.93,10.93,0,0,0,211.32,184.67Z"/><path class="cls-27" d="M206.13,176c-4.43,1.38-4.19,5.84-5.92,9l-4,4.74c-.43-2.77-.69-4.52-1-6.26.55-2.83,6-2.2,4.52-6.47l4.62-4.18Z"/><path class="cls-24" d="M208.41,210.92l4-1.94c.08,1.55.16,3.1.27,5.18l8.25-5.44a21.91,21.91,0,0,1-1.11,2.09C215.15,217.78,213.26,217.79,208.41,210.92Z"/><path class="cls-23" d="M215.16,202.37,209.21,195l1-1,2.71,2,5.22,7Z"/><path class="cls-15" d="M225.07,178l3.74-1-.66,8.25C224.34,184,225.34,180.76,225.07,178Z"/><path class="cls-28" d="M218.17,203,213,196l9.24,5.93-1.86.75Z"/><path class="cls-17" d="M231.21,185v-8.21h1.94v8.33Z"/><path class="cls-15" d="M223.16,173.88l3.29-.3-2.21,3.34-2.43-2.64.45-.41.45.06Z"/><path class="cls-24" d="M226.15,211l-5.17-2.3C223.59,206.79,224.9,207.37,226.15,211Z"/><path class="cls-23" d="M220.33,202.68l1.86-.75,1.21.18Z"/><path class="cls-7" d="M163.07,177.13l-3.74-3.34c-.73-6,4.42-8.3,7.61-11.82,1.16-1.28,2.17-2.68,3.25-4,0-4.2,1.26-7.74,5.07-10l2,1c-1.47,4.76-3.05,9.49-4.4,14.29-1.25,4.45-1.08,8.66,3.05,11.77l1.59,6.74c-.43,1.13-.85,2.26-1.28,3.38-.88-.7-2.39-1.28-2.54-2.11C172.53,176.6,168.26,176.12,163.07,177.13Z"/><path class="cls-28" d="M204.14,162l-5.94,11-2-1q-3.42-2-6.82-4.1l-2.07-6c0-1,0-2-.08-2.93,3.15-2.33,3.12-4.67,0-7-.22-2.2.4-3.52,3-2.82-.44,3.11,7.42,5-.46,9.48l6.43.35c1.7,5,3.33-1,5,0Z"/><path class="cls-29" d="M196.18,159l-6.43-.35c7.88-4.52,0-6.37.46-9.48-.81-1.82-1.76-3.6-2.38-5.48a22.89,22.89,0,0,1-.58-4.17l5.85,3.44q1.56,4.53,3.11,9l-.11,3.31C196.12,156.5,196.15,157.73,196.18,159Z"/><path class="cls-12" d="M177.49,181.77,175.9,175c.12-.83.23-1.67.35-2.5l5.48,2.06.46.37,3,5,0,0,0,3.94-2.22.48Z"/><path class="cls-19" d="M181.73,174.59l-5.48-2.06v-8.24c4.69,1,5.06,4.65,6,7.82C182.09,172.94,181.91,173.76,181.73,174.59Z"/><path class="cls-25" d="M177.25,149l-2-1-1.72-1.25-3.69.07-1.21-.15c.18-5,4.11-4.56,7.37-5.1q1.63,2.26,3.28,4.51Z"/><path class="cls-12" d="M181.73,174.59c.18-.83.36-1.65.55-2.48l5.48-.26,1.43,1.17c-1.67,2.12.84,6.63-4,7l0,0c-.16-2.16,1.05-5.14-3-5Z"/><path class="cls-12" d="M189.39,167.87q3.41,2.06,6.82,4.1c0,.34,0,.68,0,1-4.25-.17-2.78,2.9-2.87,5.08l-.07,0L191.19,173l-3.13-3.1a1.87,1.87,0,0,1,0-.88C188.49,168.61,188.94,168.24,189.39,167.87Z"/><path class="cls-15" d="M179.29,146q-1.65-2.25-3.28-4.51c1.05-1.81,2.09-3.62,3.14-5.42,0,2.5-2.08,5.45,1.57,7.13Z"/><path class="cls-29" d="M187.26,152c3.1,2.35,3.13,4.69,0,7C187.25,156.63,187.25,154.29,187.26,152Z"/><path class="cls-23" d="M189.39,167.87c-.45.37-.9.74-1.36,1.1l-.72-7.07Q188.36,164.89,189.39,167.87Z"/><path class="cls-28" d="M188.06,169.85l3.13,3.1-2,.07-1.43-1.17Z"/><path class="cls-1" d="M217,219.52a29,29,0,0,1-1.74,2.62,26,26,0,0,1-2.1,2.1l-9.63.47c-.14-3.24-2.27-3.88-5-3.78,3.89-4.21,7.64-4.69,13.6-1.74l1,0Z"/><path class="cls-29" d="M210.24,194l-1,1c-3.06-2.61-5.93-4.8-9.62-.49-1.06,1.23-3.72,1.1-5.64,1.59l-3.07-3.18-3.77-3.38,4.92-5.41.33-1.78,2.85,1.14c.27,1.74.53,3.49,1,6.26l4-4.74,5-2.06c1.23,2.83,2.6,6,4,9.09Z"/><path class="cls-26" d="M192,184.09l-4.92,5.41,3.77,3.38c-4.74,4-10.43,3.69-15-.84l2.24-1.31c6.26.22,6.42,0,4.86-6.33l2.22-.48c.82,3,1.81,4.88,4.35,1C189.92,184.37,191.17,184.36,192,184.09Z"/><path class="cls-20" d="M192.06,205.11c.15.57.31,1.14.46,1.71l-2.05,2.84-14.42-5.07c3.42-4.68,6.36.83,9.61.54.69-.06,1.49,1.18,2.3,1.89Z"/><path class="cls-16" d="M190.47,209.66l2.05-2.84,4.1,4.18-3.73,1.69Z"/><path class="cls-1" d="M198.26,242.74l-.34-.14.39-.38.26.28Z"/><path class="cls-16" d="M198.12,210.86c.75-3.86,3.72-4.27,6.67-3.69,1.06.22,1.76,2.27,2.62,3.48Z"/><path class="cls-21" d="M213.21,219.22l-1,0Z"/><path class="cls-19" d="M183,184.4c1.56,6.35,1.4,6.55-4.86,6.33l-1.89-5.58c.43-1.12.85-2.25,1.28-3.38Z"/><path class="cls-23" d="M229.14,172.88c-1-2.51-2.09-5-3.06-7.53a7.73,7.73,0,0,0-7.82-5.34l.93-2,5.14-1.06,4.1,2.38-1.54-6.24,1.28-.09,3.05,9-1.06,1L227,161.27l-.83.8,4.86,4.8,1.13,3.06,1,2.95-4.07,1h0C229.13,173.56,229.13,173.22,229.14,172.88Z"/><path class="cls-28" d="M231.22,162l-3.05-9c.07-1.18.15-2.36.22-3.54L233,154.1c.41,2.61.82,5.23,1.24,7.84Z"/><path class="cls-29" d="M231.06,166.87l-4.86-4.8.83-.8,3.13,1.66,1.21.14C231.27,164.34,231.17,165.6,231.06,166.87Z"/><path class="cls-26" d="M231.06,166.87c.11-1.27.21-2.53.31-3.8.95,1.83,1.94,3.64,2.74,5.53.06.15-1.25.87-1.92,1.33C231.82,168.91,231.44,167.89,231.06,166.87Z"/><path class="cls-27" d="M226.89,153.05l1.54,6.24-4.1-2.38c-2.61-4.89-5.17-9.83-11.8-10.38a6.11,6.11,0,0,0,1.75,2.93c1.32,1.48,2.63,3,3.95,4.47l-9.69-3.74c1.68,4.81-.28,5.65-3.36,5.77-.29-1.12-1.13-2.46-.78-3.32,1.79-4.43.59-8.48-.79-12.7-.62-1.92-.29-4.14-.4-6.22l10.39,3.65-.36,1.72-4.06,1.69,3.84,4.16,3.22-6.85,7.92,4.95,4.21,6.18-8.43-6-.91.94Z"/><path class="cls-25" d="M203.21,133.72c.11,2.08-.22,4.3.4,6.22,1.38,4.22,2.58,8.27.79,12.7-.35.86.49,2.2.78,3.32l-4,3c-1.67-1-3.3,5-5,0,0-1.23-.06-2.46-.08-3.69,6.89-2.22,6.93-12,2-18.16l-2-6,2.11-.16C200.24,131.28,203.21,129.81,203.21,133.72Z"/><path class="cls-20" d="M144.36,194.85l.66-.46A.57.57,0,0,1,144.36,194.85Z"/><path class="cls-19" d="M169.85,146.77l3.69-.07Z"/><path class="cls-26" d="M196.21,152q-1.54-4.52-3.11-9c.49-4.31-2-6.54-5.53-8.21-1.22-.57-2.12-1.83-3.16-2.78l11.86,5.17c.85,3.1,2.15,6.18,2.36,9.33C198.76,148.21,197.08,150.11,196.21,152Z"/><polygon class="cls-21" points="209.03 227.47 208.69 227.59 208.71 227.31 209.03 227.47"/><path class="cls-12" d="M226.89,153.05,219,144.18l.91-.94,8.43,6s0,.21,0,.2c-.07,1.18-.15,2.36-.22,3.54Z"/><path class="cls-5" d="M196.21,152c.87-1.85,2.55-3.75,2.42-5.53-.21-3.15-1.51-6.23-2.36-9.33h1.85c4.91,6.16,4.87,15.94-2,18.16C196.14,154.17,196.18,153.06,196.21,152Z"/><path class="cls-5" d="M192.11,130.73c1.46-2.55,2.84-2.56,4.12.14Z"/><path class="cls-13" d="M208.28,239l.89-.05Z"/><path class="cls-12" d="M201.18,158.93l4-3c3.08-.12,5-1,3.36-5.77l9.69,3.74h0l0,2-.08,1.79a3.59,3.59,0,0,0-.92.19l-.9.08-4.76-5.88c-.18,2.59-.25,3.69-.33,4.79-.16,1.47-.31,2.93-.45,4.13l-6.61.91C203.15,161,202.17,159.94,201.18,158.93Z"/><path class="cls-19" d="M195.21,183.45l-2.85-1.13.9-4.3.07,0,6.4-1.09C201.25,181.25,195.76,180.62,195.21,183.45Z"/><path class="cls-29" d="M219.17,164l1,6c-1.22-1.47-2.94-2.77-3.53-4.46C215.56,162.59,217.46,163.13,219.17,164Z"/><path class="cls-27" d="M211.2,156.94c.08-1.1.15-2.2.33-4.79l4.76,5.88c-.8.28-1.71,1-2.36.77A10.84,10.84,0,0,1,211.2,156.94Z"/><path class="cls-23" d="M196.2,173c0-.34,0-.68,0-1l2,1Z"/><path class="cls-26" d="M217.19,158a3.59,3.59,0,0,1,.92-.19l1.08.21-.93,2c0,.3-.08.61-.11.91Z"/><path class="cls-29" d="M223.16,173.88l-.45.05-.45-.06L221.15,172Z"/><path class="cls-29" d="M220.14,170c.34.67.67,1.34,1,2C220.81,171.33,220.48,170.66,220.14,170Z"/><path class="cls-15" d="M229.14,172.88c0,.34,0,.68,0,1a3.21,3.21,0,0,1-.3-.69C228.8,173.12,229,173,229.14,172.88Z"/><path class="cls-23" d="M193.26,178l-.9,4.3q-.17.87-.33,1.77c-.86.27-2.11.28-2.5.87-2.54,3.84-3.53,1.93-4.35-1l0-3.94c4.82-.33,2.31-4.84,4-7l2-.07Z"/><path class="cls-23" d="M182.19,175c4-.17,2.82,2.81,3,5Z"/><path class="cls-25" d="M219.19,158l-1.08-.21c0-.6,0-1.19.08-1.79s0-1.36,0-2h0c-1.32-1.49-2.63-3-3.95-4.47a6.11,6.11,0,0,1-1.75-2.93c6.63.55,9.19,5.49,11.8,10.38Z"/><path class="cls-27" d="M218.21,153.94c0,.67,0,1.35,0,2Z"/></g></g></svg>