<svg xmlns="http://www.w3.org/2000/svg" viewBox="0 0 175.39 175.39"><defs><style>.cls-1{fill:#fff;}.cls-2{fill:#e50012;}.cls-3{fill:#1d2087;}.cls-4{fill:#0b308e;}</style></defs><g id="Layer_2" data-name="Layer 2"><g id="ÉåÉCÉÑÅ__1" data-name="ÉåÉCÉÑÅ[_1"><path class="cls-1" d="M87.7,175.39a87.3,87.3,0,0,0,53.46-18.2H34.23A87.31,87.31,0,0,0,87.7,175.39Z"/><path class="cls-1" d="M17.05,139.65H158.34a87,87,0,0,0,9.89-17.21H7.16A87,87,0,0,0,17.05,139.65Z"/><path class="cls-1" d="M98.31.66A88.5,88.5,0,0,0,87.7,0h0V.66Z"/><path class="cls-1" d="M1.7,104.91h172a88.81,88.81,0,0,0,1.69-17.21H0A88,88,0,0,0,1.7,104.91Z"/><path class="cls-1" d="M87.7,70.16h85.93a87.75,87.75,0,0,0-5.4-17.22H87.7Z"/><path class="cls-1" d="M87.7,35.41h70.4A88.25,88.25,0,0,0,141.16,18.2H87.7Z"/><path class="cls-2" d="M87.7.66V18.2h53.46A87.25,87.25,0,0,0,98.31.66Z"/><path class="cls-2" d="M87.7,52.94h80.53A88.11,88.11,0,0,0,158.1,35.41H87.7Z"/><path class="cls-2" d="M87.7,86.94H0c0,.24,0,.5,0,.76H175.39a88,88,0,0,0-1.76-17.54H87.7Z"/><path class="cls-2" d="M7.16,122.44H168.23a88,88,0,0,0,5.47-17.53H1.7A87.29,87.29,0,0,0,7.16,122.44Z"/><path class="cls-2" d="M34.23,157.19H141.16a88.4,88.4,0,0,0,17.18-17.54H17.05A88.13,88.13,0,0,0,34.23,157.19Z"/><path class="cls-3" d="M75.56.85l-.49.06h.47Z"/><path class="cls-4" d="M87.7,70.16V0a91.55,91.55,0,0,0-9.29.48l.13.43h4.83l-3.9,2.85L81,8.36l-3.9-2.83L73.12,8.36l1.49-4.6L71.52,1.52a85.69,85.69,0,0,0-18.91,5.8l.33,1-1-.74a89.18,89.18,0,0,0-12.44,6.82h1.87L37.45,17.3l1.49,4.58L35,19.05,31.1,21.88l.54-1.61c-1.8,1.5-3.56,3.08-5.23,4.73h.93L24,27.43l-.54.55,1.45,4.47-3.3-2.4A87.74,87.74,0,0,0,4.1,61.12H5.52L7,56.52l1.51,4.6h4.82L9.45,64l1.47,4.58L7,65.73,3.1,68.56,4.59,64l-1.1-.81A87.54,87.54,0,0,0,0,86.94H87.7ZM81,56.52l-3.9-2.82-3.93,2.82,1.49-4.59L70.7,49.09l4.84,0,1.51-4.59,1.49,4.59,4.83,0-3.9,2.84Zm-47.43,4.6,1.5-4.6,1.5,4.6h4.84L37.45,64l1.49,4.58L35,65.73,31.1,68.56,32.59,64l-3.9-2.86ZM46.6,51.93l-3.9-2.84,4.83,0L49,44.48l1.52,4.59,4.82,0-3.9,2.84,1.48,4.59L49,53.7l-3.9,2.82Zm6.34-19.48L49,29.61l-3.9,2.84,1.48-4.61L42.7,25l4.83,0L49,20.4,50.54,25l4.82,0-3.9,2.84ZM67,68.56,63,65.73l-3.91,2.83L60.61,64l-3.9-2.86h4.82L63,56.52l1.5,4.6h4.82L65.45,64ZM64.54,37l4.82,0-3.91,2.84L67,44.48,63,41.65l-3.91,2.83,1.48-4.59-3.9-2.84,4.82,0L63,32.45ZM81,32.45l-3.9-2.84-3.93,2.84,1.49-4.61L70.7,25l4.84,0,1.51-4.58L78.54,25l4.83,0-3.9,2.84Zm-24.24-18h4.82L63,9.85l1.5,4.59h4.82L65.45,17.3,67,21.88,63,19.05l-3.91,2.83,1.48-4.58ZM35,32.45,36.52,37l4.84,0-3.91,2.84,1.49,4.59L35,41.65,31.1,44.48l1.49-4.59-3.9-2.84,4.83,0ZM14.7,49.09l4.82,0L21,44.48l1.5,4.59,4.82,0-3.89,2.84,1.48,4.59L21,53.7l-3.9,2.82,1.47-4.59ZM24.93,80.6,21,77.77l-3.9,2.83L18.59,76,14.7,73.16h4.82l1.5-4.6,1.5,4.6h4.82L23.45,76Zm28,0L49,77.77l-3.9,2.83L46.6,76l-3.9-2.86h4.83L49,68.56l1.52,4.6h4.82L51.46,76Zm28,0-3.9-2.83L73.12,80.6,74.61,76,70.7,73.16h4.84l1.51-4.6,1.49,4.6h4.83L79.47,76Z"/><path class="cls-1" d="M73.12,8.36l3.93-2.83L81,8.36l-1.48-4.6L83.37.91H78.54L78.41.48c-1,.11-1.89.24-2.85.37l0,.06h-.47c-1.2.18-2.37.38-3.55.61l3.09,2.24Z"/><path class="cls-1" d="M52.61,7.32l-.68.3,1,.74Z"/><polygon class="cls-1" points="78.54 24.98 77.05 20.4 75.54 24.98 70.7 25 74.61 27.84 73.12 32.45 77.05 29.61 80.95 32.45 79.47 27.84 83.38 25 78.54 24.98"/><path class="cls-1" d="M26.41,25c-.82.79-1.61,1.59-2.39,2.43L27.34,25Z"/><path class="cls-1" d="M23.48,28c-.63.68-1.24,1.38-1.85,2.07l3.3,2.4Z"/><polygon class="cls-1" points="50.54 24.98 49.02 20.4 47.53 24.98 42.7 25 46.6 27.84 45.12 32.45 49.02 29.61 52.94 32.45 51.46 27.84 55.36 25 50.54 24.98"/><polygon class="cls-1" points="83.38 49.09 78.54 49.07 77.05 44.48 75.54 49.07 70.7 49.09 74.61 51.93 73.12 56.52 77.05 53.7 80.95 56.52 79.47 51.93 83.38 49.09"/><polygon class="cls-1" points="17.12 56.52 21.02 53.7 24.93 56.52 23.45 51.93 27.34 49.09 22.52 49.07 21.02 44.48 19.52 49.07 14.7 49.09 18.59 51.93 17.12 56.52"/><polygon class="cls-1" points="52.94 56.52 51.46 51.93 55.36 49.09 50.54 49.07 49.02 44.48 47.53 49.07 42.7 49.09 46.6 51.93 45.12 56.52 49.02 53.7 52.94 56.52"/><polygon class="cls-1" points="78.54 73.16 77.05 68.56 75.54 73.16 70.7 73.16 74.61 76.02 73.12 80.6 77.05 77.77 80.95 80.6 79.47 76.02 83.38 73.16 78.54 73.16"/><polygon class="cls-1" points="22.52 73.16 21.02 68.56 19.52 73.16 14.7 73.16 18.59 76.02 17.12 80.6 21.02 77.77 24.93 80.6 23.45 76.02 27.34 73.16 22.52 73.16"/><polygon class="cls-1" points="50.54 73.16 49.02 68.56 47.53 73.16 42.7 73.16 46.6 76.02 45.12 80.6 49.02 77.77 52.94 80.6 51.46 76.02 55.36 73.16 50.54 73.16"/><polygon class="cls-1" points="28.69 37.05 32.59 39.89 31.1 44.48 35.02 41.65 38.94 44.48 37.45 39.89 41.36 37.05 36.52 37.03 35.02 32.45 33.52 37.03 28.69 37.05"/><polygon class="cls-1" points="61.53 37.03 56.71 37.05 60.61 39.89 59.13 44.48 63.04 41.65 66.94 44.48 65.45 39.89 69.36 37.05 64.54 37.03 63.04 32.45 61.53 37.03"/><polygon class="cls-1" points="31.1 68.56 35.02 65.73 38.94 68.56 37.45 63.98 41.36 61.12 36.52 61.12 35.02 56.52 33.52 61.12 28.69 61.12 32.59 63.98 31.1 68.56"/><path class="cls-1" d="M3.1,68.56,7,65.73l3.91,2.83L9.45,64l3.89-2.86H8.52L7,56.52l-1.49,4.6H4.1c-.21.68-.4,1.36-.61,2.05l1.1.81Z"/><polygon class="cls-1" points="64.54 61.12 63.04 56.52 61.53 61.12 56.71 61.12 60.61 63.98 59.13 68.56 63.04 65.73 66.94 68.56 65.45 63.98 69.36 61.12 64.54 61.12"/><path class="cls-1" d="M35,19.05l3.92,2.83L37.45,17.3l3.91-2.85H39.49a83.93,83.93,0,0,0-7.85,5.83l-.54,1.61Z"/><polygon class="cls-1" points="59.13 21.88 63.04 19.05 66.94 21.88 65.45 17.3 69.36 14.45 64.54 14.44 63.04 9.85 61.53 14.44 56.71 14.45 60.61 17.3 59.13 21.88"/></g></g></svg>