<svg xmlns="http://www.w3.org/2000/svg" viewBox="0 0 136.83 137.75"><defs><style>.cls-1{fill:#0000ca;}.cls-2{fill:#00c;}.cls-3{fill:#0000ce;}</style></defs><g id="Layer_2" data-name="Layer 2"><g id="Layer_1-2" data-name="Layer 1"><g id="Layer_2-2" data-name="Layer 2"><g id="Layer_1-2-2" data-name="Layer 1-2"><path class="cls-1" d="M56.48,107.23c-.72,3.32-.92,5.84-1.89,8A4.79,4.79,0,0,1,51,117.47c-15.15.15-30.31.07-45.47.12-4,0-5.51-1.75-5.5-5.81q.18-43.48,0-87c0-4.67,1.83-6.22,6.25-6s8.64,0,13.8,0c0-4.6.11-9,0-13.42C19.85,1.66,21.51,0,25.29,0c16.49,0,33,0,49.47.11a7.63,7.63,0,0,1,4.75,2C87,9.2,94.38,16.42,101.57,23.83a9.26,9.26,0,0,1,2.2,5.68c.26,7.32-.26,14.68.23,22,.36,5.33-1.19,9.26-5.3,12.49-1.41,1.11-2.46,2.67-4.54,5V35.31H75.91c-7,0-7.85-.86-7.86-7.7V10.4H30.31V88.75h43c-5.36,6.4-9.8,11.44-18.74,10.49-9.39-1-19-.35-28.46-.16-4.52.09-6.17-1.65-6.13-6.19.16-19.48.07-39,.07-58.46V29.26H10.29v78ZM78.1,25.59h9L78.1,15Z"/><path class="cls-2" d="M55.68,136.63c2.13-9,4.25-18,6.43-27a4.79,4.79,0,0,1,1.17-2.14C75.88,94.75,88.51,82,100.79,69.64L123.24,92.1c-12.18,12.16-24.64,24.61-37.13,37a5.79,5.79,0,0,1-2.45,1.62c-9.15,2.19-18.33,4.27-27.5,6.38Zm9.66-25.11C64,117.8,59.69,123.59,67,128.71c5.39,3.78,9.34-1.12,14.23-.76Z"/><path class="cls-3" d="M129,86.58,106.76,64.37c11.35-12,8.07-10.1,18.16-.55,3.38,3.19,6.48,6.68,9.92,9.81,2.78,2.53,2.56,4.59-.1,7C132.64,82.5,130.8,84.65,129,86.58Z"/><path class="cls-2" d="M56.16,137.14l-.57.61.09-1.12Z"/></g></g></g></g></svg>