<svg xmlns="http://www.w3.org/2000/svg" xmlns:xlink="http://www.w3.org/1999/xlink" viewBox="0 0 144.99 22.83"><defs><style>.cls-1{fill:none;}.cls-2{clip-path:url(#clip-path);}.cls-3{fill:#231916;}</style><clipPath id="clip-path" transform="translate(0 0)"><rect class="cls-1" width="144.99" height="22.83"/></clipPath></defs><g id="Layer_2" data-name="Layer 2"><g id="レイヤー_1" data-name="レイヤー 1"><g class="cls-2"><polygon class="cls-3" points="23.01 0.23 8.43 11.31 8.43 0.23 0 0.23 0 22.59 8.43 22.59 8.43 17.75 14.84 13.29 25.5 22.59 35.5 22.59 20.34 9.47 33.62 0.23 23.01 0.23"/><path class="cls-3" d="M55.89,7.32l6.4,9.13H49.49ZM53.22.23,36.11,22.59h9.08l1.46-2.08H65.14l1.46,2.08h9.07L58.57.23Z" transform="translate(0 0)"/><g class="cls-2"><path class="cls-3" d="M108.52,10.09v4.37a5.86,5.86,0,0,1-2,4.39,13.54,13.54,0,0,1-5.7,2.94,31.79,31.79,0,0,1-8.55,1,34.31,34.31,0,0,1-8.63-1,14.21,14.21,0,0,1-5.79-2.76,5.37,5.37,0,0,1-2-4.14V8.35A5.85,5.85,0,0,1,77.8,4,13.64,13.64,0,0,1,83.51,1a31.77,31.77,0,0,1,8.55-1,31.06,31.06,0,0,1,7.38.82,17.8,17.8,0,0,1,5.65,2.33,7.77,7.77,0,0,1,3.06,3.49H99a3.65,3.65,0,0,0-1.52-1.22A10.13,10.13,0,0,0,95,4.64a15.93,15.93,0,0,0-3-.27,14.22,14.22,0,0,0-4,.49,6.22,6.22,0,0,0-2.65,1.4,2.84,2.84,0,0,0-.94,2.09V15a2.37,2.37,0,0,0,1,1.85A6.7,6.7,0,0,0,88.19,18a17.44,17.44,0,0,0,4.06.43,15.25,15.25,0,0,0,4-.47,6.15,6.15,0,0,0,2.63-1.36,2.87,2.87,0,0,0,.92-2.11v-.37H93V10.09Z" transform="translate(0 0)"/><path class="cls-3" d="M119.8,21.85A12.33,12.33,0,0,1,114.23,19a6.06,6.06,0,0,1-1.91-4.5V.23h8.43V14.61a3.29,3.29,0,0,0,2.06,3,13.09,13.09,0,0,0,5.82,1.06,13.25,13.25,0,0,0,5.86-1.06,3.28,3.28,0,0,0,2.07-3V.23H145V14.5a6,6,0,0,1-1.92,4.5,12.45,12.45,0,0,1-5.6,2.85,34.86,34.86,0,0,1-8.84,1,34.66,34.66,0,0,1-8.83-1" transform="translate(0 0)"/></g></g></g></g></svg>